<svg xmlns="http://www.w3.org/2000/svg" width="1245" height="1018" style=""><path width="100%" height="100%" fill="none" d="M0 0 L100 0 L100 100 L0 100 Z" class="ranmznRO_0"></path><g class="currentLayer"><title>Layer 1</title><path fill-rule="evenodd" clip-rule="evenodd" d="M915.4324367 677.63702393c-.633 6.8460002-1.21800005 13.6960001-1.906 20.5359993-3.38599993 33.60300063-5.8039999 67.3430023-10.54300023 100.7539978-3.28600002 23.16600036-9.76399994 45.88000106-14.86200047 68.7860031-.86699998 3.89599992-2.28399992 7.691-2.89700007 11.61800004-1.362 8.7119999-5.63500023 15.86200047-11.4499998 22.93300056-4.7290001-4.46299982-6.81699993-10.04699993-6.75600006-16 .071-6.94099998.949-13.9300003 2.09299994-20.79500007 2.9790001-17.8920002 6.692-35.66699982 9.3859997-53.59799957 4.2020002-27.9759999 8.4130001-55.9760018 11.4490004-84.0920029 2.1229999-19.6499996 2.6559999-39.5019989 3.2360001-59.2820015.6930001-23.6340008.529-47.2709999-2.9019999-70.7720032-2.4119999-16.514-5.651-32.7290001-12.8599996-47.9739991-5.5289998-11.6929999-13.9689998-21.0179997-23.2049999-29.7269993-1.005-.948-3.6630001-1.421-4.776-.775-10.0459995 5.8319997-19.8029995 3.5069999-29.0669994-1.313-19.25-10.0159998-38.6170005-9.2290001-57.7330017-.64-5.8390002 2.6229999-10.7519998 7.737-15.4709997 12.3439998-15.6040001 15.2340002-30.4699993 31.2520008-46.4710006 46.0470009-20.5699997 19.0200004-44.7729988 32.6940002-70.1449966 44.3069992-12.8330002 5.874-25.7029991 11.6680002-38.6459999 17.2929992-3.4809999 1.513-7.2620001 2.3859999-10.9580002 3.345-3.17.823-4.151 2.5510001-3.8310001 5.835 5.112 52.3190002 22.6399994 100.0210037 53.1500016 142.8549957 21.7150002 30.4839992 48.125 56.4609985 77.5370026 79.4349975 9.4379997 7.3709998 19.3250008 14.1639996 28.9850006 21.2520008.597.438.995 1.146 2.129 2.4920001H374.170457c2.31999994-6.329 4.50199986-12.3199997 6.71099997-18.3010006 6.00299978-16.2479992 9.26399994-33.1839981 9.07699967-50.3470001-.384-35.4659996-12.78999997-66.6579971-36.38100052-93.2519989-19.08099938-21.5100002-42.3959999-36.7389984-69.5530014-46.0029984-18.43899918-6.29-37.13399888-8.1730004-56.5149994-3.911-10.1619997 2.2339999-20.77599907 3.3129999-31.18499946 3.3099999-15.9090004-.006-31.89800072-.668-47.70000077-2.432-13.0819998-1.46-24.3950005-7.217-29.2360001-20.8549995-2.777-7.8210001-2.773-15.9139996-1.5930001-24.1459999.845-5.902 1.117-11.9540005.947-17.9190006-.219-7.717-4.7220002-12.184-12.389-13.1730004-2.806-.362-5.9039998.092-8.382-.967-2.8120001-1.201-6.6680003-3.257-7.3130002-5.6770001-3.2420001-12.1490002-1.701-20.3040009 8.8199997-26.2679997 4.124-2.3369999 8.5229997-4.1880002 13.1000003-6.408-5.3959999-7.9530001-10.6739998-15.3570004-15.5539999-23.0149994-6.6550002-10.4440003-4.9450002-16.0599995 5.513-22.6110001 7.5949998-4.7579999 14.6929998-10.3050003 22.1040001-15.3669996 2.7709999-1.893 2.312-3.3499999.262-5.5149999-4.1180001-4.34700018-8.3190003-8.6859999-11.8680001-13.4849997-6.8579998-9.276-6.5489998-17.8290005.528-27.007 2.0280001-2.6300001 4.3049998-5.0890002 6.6389999-7.4569998 11.2220001-11.3850002 22.4650001-22.7490005 33.7879982-34.0330009 2.7699999-2.76 3.3689999-4.9250002.642-8.41499998-4.7630001-6.0960002-8.8290005-12.736-14.021-20.375 8.6639995 1.035 13.1490001 7.7459998 20.8759994 9.4659996-.381-5.4330001-.56-10.3240003-1.095-15.1759996-1.8710001-16.9379997-2.4979999-33.8089981.688-50.7120018 5-26.5319996 16.6690006-49.9990005 32.0130005-71.9059982 1.25-1.784 2.105-4.5630002 1.7439999-6.6350002-1.643-9.40600015 1.9960001-17.6970005 4.7189999-26.2360001 1.158-3.6329999 2.638-7.3410001 2.8169999-11.0699997.34-7.0710001 3.7520001-12.3990002 8.4899997-16.9680004 6.039-5.8210001 10.0959997-12.6669998 12.6389999-20.59199903 2.496-7.777 7.0879998-13.4200001 14.9309997-17.0130005 3.3599999-1.53900006 5.1659999-6.4780002 7.6719999-9.875 1.33800002-1.814 2.2969999-4.6479998 4.05700012-5.2859998 8.257-2.9920001 13.2709999-9.8120003 19.5270004-15.217 4.21500016-3.6429999 8.8120003-7.5650001 13.9320002-9.2370005 5.1620002-1.68499995 9.1569996-4.08500005 12.7950001-7.8449998 8.8249998-9.11800003 20.4580002-12.85099983 32.24900052-15.87800026 16.1019993-4.1329999 32.2669983-8.07299998 48.5270005-11.5170002 19.8570003-4.204 39.9360008-4.34299996 60.0320015-1.638 10.052 1.353 20.1620006 2.4059999 30.125 4.2509999 23.4799995 4.3460002 46.1069984 11.8579998 67.8300018 21.5119991 39.1170005 17.382 76.810997 37.74499892 110.7630004 63.86999892 29.6590004 22.8209992 58.50299833 46.7869988 85.5360031 72.8310013 16.17200086 15.5810003 33.2089996 30.2630005 49.7919998 45.4199982 1.79999995 1.64600004 3.73099994 3.52699996 4.6420002 5.70100023 4.01399993 9.58399966 11.4750004 14.0419998 21.37400054 14.63500025 12.1260004.727 24.2880001.849 36.4150009 1.566 6.7909999.401 13.6459999.97899996 20.28899956 2.35899996 12.11499978 2.5209999 20.1420002 10.7609997 22.60099985 22.243 3.04699997 14.2290001 12.4790001 20.1089992 24.6490002 24.466999 31.0699997 11.1239996 61.3450012 24.25300026 88.4509964 43.19599915 17.3950005 12.1560001 33.5019989 26.2360001 49.6450005 40.0849991 28.2630005 24.2479992 52.63299946 52.30899815 77.29000096 80.08999638 6.592 7.428 14.6800003 13.5120001 21.79500005 20.5030003 2.145 2.1070001 4.158 5.0040002 4.81400015 7.8639999 5.7049999 24.8659992 12.4829998 49.39300154 21.7420006 73.1949997.214.551.19 1.19500003.489 3.243-28.14100078-31.60099985-47-68.9110031-77.44000248-96.82099916-.509.194-1.01900007.389-1.52699997.583.593 1.76100008.952 3.645 1.8120001 5.26399998 15.03499983 28.3169994 33.387001 54.4269981 52.855999 79.8280029 9.6070003 12.533 19.3299999 25.1340008 25.0349998 40.0849991 2.2349999 5.8600001 3.9820001 12.06200025 4.8080001 18.2609997.765 5.7410002 2.75900007 10.58500002 6.375 14.8529997 12.3710003 14.59899994 19.2460003 31.72100064 23.3050003 50.1689987.344 1.561.866 3.082 1.725 6.092-6.4159999-1.763-11.8549995-3.25699998-17.84399982-4.901-.827 4.6389999-1.65199993 9.2670002-2.60800002 14.6300001-3.3529999-1.589-6.08199978-2.882-9.5209999-4.51100017.611 5.355 1.051 10.0550003 1.703 14.7250004.944 6.756 2.204 13.4729996 2.97 20.2469997.212 1.88100002-.357 4.3379998-1.537 5.6789999-.57200007.651-3.556-.325-5.14699988-1.146-8.6669998-4.4660001-12.9689999-12.69799998-17.1060009-20.8500004-18.67300034-36.7869987-36.96500016-73.7699966-55.83399964-110.4550018-11.9350004-23.2019997-24.6070003-46.026001-37.0540008-68.9629975-1.31700003-2.4270001-3.3410001-4.4710002-5.0370002-6.6919999-.426.266-.853.532-1.2790001.799.159.861.124 1.8229999.50700005 2.5699999 12.11499974 23.6650009 24.2010002 47.3450012 36.4399986 70.9449997 12.3999996 23.91399952 25.0349999 47.7070007 37.4129982 71.6330032 5.9439998 11.4899998 12.1339998 22.9160004 17.0559998 34.8479996 2.86899992 6.954 3.2679999 14.89700032 5.105 22.3139992 3.63899992 14.6850004 7.80200003 29.2460003 11.1459999 43.99499892 1.5190001 6.697 1.599 13.7209997 2.3310001 20.5970001-.603.445-1.20500006.893-1.808 1.338-3.5339999-2.3670001-7.3870001-4.375-10.545-7.1669998-11.1459999-9.8540001-17.6119995-22.78300095-23.0690003-36.31299973-.65-1.613-1.521-3.1370001-3.438-4.5739999-.908 5.77-1.863 11.5319996-2.714 17.3110008-1.018 6.9169998-1.75499998 13.8830004-3.03299998 20.7490006-.366 1.965-1.831 4.3049998-3.48300008 5.2119999-.85.467-3.5120001-1.563-4.84399988-2.954-2.46799997-2.5769999-4.55999997-5.51399995-6.8080001-8.30099965-.614.021-1.229.044-1.845.065-1.686 6.9200001-4.21500018 13.7609997-4.8779998 20.7779999-1.262 13.368-1.428 26.8390007-2.13599997 40.2630005-.087 1.636-.652 3.25999995-1.113 4.8559999-.268.927-.769 1.788-1.39900008 3.20799993-18.5690003-14.4329996-19.4969998-36.6040001-25.9969998-57.7540016-1.303 2.4430001-2.02 3.438-2.3929999 4.547-1.911 5.6750002-3.94000007 11.3229999-5.49800016 17.0970001-.754 2.796-1.21099997 5.9679999-.689 8.7620001 2.4159999 12.9549999 2.076 25.8430004-.104 38.7490005-.236 1.39600004-.729 2.75099994-1.187 4.4330001-6.4629998-1.99399996-10.2349996-6.2989998-13.2159996-11.3649998-2.86100007-4.8639998-5.2220001-10.0310001-8.2139997-14.8079996-1.129-1.801-3.208-3.4489999-5.2119999-4.1630001-3.8829999-1.383-6.25-3.4879999-7.822-7.5069999-9.9460001-25.4239998-15.8409996-51.8269997-19.7210007-78.74700168-3.8340001-26.6040001-10.5380001-52.47800062-19.57900048-77.7710037-3.1300001-8.7580004-6.0689998-17.58399964-9.2250004-26.33200073-.465-1.28999995-1.64199998-2.3239999-2.4890001-3.477-.461.26-.921.52-1.382.779.522 3.5580001 1.209 7.0999999 1.541 10.6750002 2.44499995 26.3470001 4.0149999 52.8050003 7.40899994 79.026001 4.947 38.223999 6.55700015 76.57800295 7.5250001 115.0299988.408 16.243-3.4489999 31.68700027-7.0229998 47.2420006-.236 1.0269999-1.60800006 2.5959999-2.3469999 2.539-1.58299995-.122-3.612-.719-4.55499984-1.86399997-5.33099984-6.48099996-7.8920002-14.2159996-8.9119997-22.41500093-3.59899996-28.9160003-7.1079998-57.8429985-10.5670004-86.7760009-2.1329999-17.8479996-4.1079998-35.7140007-6.17199996-53.5690003-.109-.945-.389-1.87-1.617-2.8199999-.083 1.6059999-.258 3.214-.232 4.8189997.225 14.4860001.592 28.9710007.705 43.4580002.107 13.8620005-1.056 27.6189995-5.217 40.9290009-1.52199997 4.8709998-3.71000006 9.5340004-5.9640002 15.2250004-13.25899987-18.05599976-9.4569998-37.76200104-10.5780001-56.52199936-.46.029-.921.058-1.3810001.086-.845 8.974-1.528 17.966999-2.566 26.9190006-2.5309999 21.8250007-4.77400015 43.7260017-12.2309999 64.6119995-3.092 8.658-7.7610002 16.4249992-14.3900004 24.0729999-3.2999999-6.2249999-6.625-11.757-6.23999977-18.4279995.622-10.7919998 1.42700002-21.5830002 2.53699992-32.3339996 2.4289999-23.51199916 5.0999999-46.9990006 7.6659999-70.4970017 2.458-22.5039997 5.0850001-44.9910011 7.2880001-67.5199966 1.0670001-10.91100025 1.5420001-21.8939991 1.9170001-32.85499954.563-16.4720001.8169999-32.9529991 1.1619999-49.4319992.036-1.71-.198-3.4260001-.308-5.1399998-.7660475-.0280156-1.5310011-.0560307-2.29601578-.0839848zm130.95300293 133.4109497c.495-.048.98900003-.095 1.48399997-.142-.363-4.7459998-.546-9.51399994-1.12100005-14.2329998-2.89499998-23.75699997-5.12699985-47.62799836-9.0380001-71.21900177-5.38100005-32.46300125-17.1399994-62.7840004-34.34000016-90.91200257-1.0160001-1.663-2.375-3.1150001-3.5750001-4.665-.268.182-.535.364-.804.547 15.7979921 60.2080495 31.5960268 120.4160573 47.3940004 180.6240041zm39.5369873-59.84100342c.249-10.3229999-24.94199943-97.9420013-32.81000136-100.3170013 3.10602188 36.115036 19.12506485 67.7930146 32.81000137 100.3170014zM925.77643086 521.2570191c-.583.269-1.16499997.537-1.74800003.80699998 10.69699955 23.67499924 20.33799934 47.83000184 31.56200027 71.26599884.804-.363 1.607-.727 2.41199994-1.089-10.74296797-23.6620384-21.4839958-47.3229881-32.2260002-70.98399884z" class="selected ranmznRO_1" stroke-width="4" stroke="#e4ae58"></path></g><style>.ranmznRO_0{stroke-dasharray:400 402;stroke-dashoffset:401;animation:ranmznRO_draw_0 7200ms linear 0ms 1,ranmznRO_fade 7200ms linear 0ms 1;}.ranmznRO_1{stroke-dasharray:7209 7211;stroke-dashoffset:7210;animation:ranmznRO_draw_1 7200ms linear 0ms 1,ranmznRO_fade 7200ms linear 0ms 1;}@keyframes ranmznRO_draw{100%{stroke-dashoffset:0;}}@keyframes ranmznRO_fade{0%{stroke-opacity:1;}94.44444444444444%{stroke-opacity:1;}100%{stroke-opacity:0;}}@keyframes ranmznRO_draw_0{11.11111111111111%{stroke-dashoffset: 401}38.88888888888889%{ stroke-dashoffset: 0;}100%{ stroke-dashoffset: 0;}}@keyframes ranmznRO_draw_1{25%{stroke-dashoffset: 7210}52.77777777777778%{ stroke-dashoffset: 0;}100%{ stroke-dashoffset: 0;}}</style></svg>